<svg width="1093" height="673" viewBox="0 0 1093 673" fill="none" xmlns="http://www.w3.org/2000/svg">
<path d="M191.231 554.645C199.796 586.307 229.133 605.916 229.133 605.916C229.133 605.916 244.584 574.191 236.019 542.529C227.454 510.867 198.116 491.258 198.116 491.258C198.116 491.258 182.666 522.983 191.231 554.645Z" fill="#7E3F3F"/>
<path d="M203.817 547.803C227.319 570.682 230.19 605.852 230.19 605.852C230.19 605.852 194.955 603.929 171.452 581.049C147.95 558.17 145.079 523 145.079 523C145.079 523 180.314 524.924 203.817 547.803Z" fill="#E2C5C5"/>
<path d="M143.974 636.529H970.578V638.084H143.974V636.529Z" fill="#2F2E41" stroke="#EAE1E1"/>
<path d="M209.581 634.752V635.252H210.081H238.178H238.678V634.752V606.654V606.154H238.178H210.081H209.581V606.654V634.752ZM240.233 636.806H208.026V604.6H240.233V636.806Z" fill="#3F3D56" stroke="#EAE1E1"/>
<path d="M311.42 25.3219H30V306.742H311.42V25.3219Z" fill="#7E3F3F"/>
<path d="M311.42 95.3377V101.797C307.131 98.9552 303.669 95.031 301.384 90.4213C297.637 82.7586 297.756 73.9261 297.874 65.3818C298.01 55.227 298.146 45.6485 291.703 39.4098C284.617 32.5607 273.276 33.5271 262.307 34.4596C261.019 34.5613 259.73 34.6799 258.459 34.7816C247.456 35.6124 235.199 32.832 229.249 25.3219H236.674C242.116 28.9837 250.44 30.2721 258.086 29.6957C259.323 29.6109 260.595 29.4922 261.866 29.3905C273.411 28.4073 286.499 27.2884 295.23 35.7479C303.265 43.5124 303.113 54.6675 302.96 65.4496C302.842 73.4006 302.74 81.6058 305.961 88.1835C307.297 90.901 309.152 93.3312 311.42 95.3377Z" fill="#E2C5C5"/>
<path d="M311.42 140.009V147.57C310.185 145.956 308.8 144.463 307.283 143.111C298.536 135.398 285.973 133.702 273.835 132.041C272.258 131.837 270.716 131.617 269.173 131.397C249.49 128.566 237.284 121.801 231.876 110.765C228.13 103.102 228.248 94.2697 228.367 85.7254C228.503 75.5706 228.638 65.9921 222.196 59.7534C215.11 52.9043 203.768 53.8706 192.8 54.8031C191.511 54.9049 190.223 55.0234 188.951 55.1251C174.812 56.1931 158.588 51.2938 156.368 38.0536C155.605 33.5101 156.741 29.3397 158.419 25.3218H163.98C162.115 29.3567 160.725 33.2558 161.386 37.2059C163.064 47.3098 176.66 50.9378 188.578 50.0392C189.816 49.9545 191.087 49.8358 192.359 49.7341C203.904 48.7509 216.992 47.6319 225.722 56.0915C233.758 63.856 233.605 75.0111 233.453 85.7932C233.334 93.7442 233.233 101.949 236.454 108.527C241.065 117.953 252 123.785 269.902 126.362C271.428 126.582 272.97 126.802 274.513 127.006C287.397 128.752 300.739 130.566 310.657 139.297C310.911 139.517 311.165 139.755 311.42 140.009Z" fill="#E2C5C5"/>
<path d="M311.42 267.461V277.905C305.3 271.395 300.18 262.46 296.264 251.288C295.433 248.915 294.636 246.491 293.84 244.066C289.449 230.792 284.905 217.077 274.089 208.313C262.527 198.954 245.964 196.886 229.944 194.886C227.892 194.631 225.841 194.377 223.807 194.106C197.835 190.664 181.746 182.476 174.609 169.083C169.659 159.776 169.811 149.062 169.964 138.704C170.15 126.396 170.337 114.766 161.826 107.205C152.485 98.8978 137.516 100.068 123.055 101.204C121.343 101.339 119.647 101.475 117.986 101.593C99.3208 102.882 77.9091 96.9483 74.9932 80.8937C73.5522 73.0276 77.231 66.0599 80.7742 59.3126C82.8086 55.4473 84.7411 51.7685 85.7244 47.988C87.7927 40.2066 85.2328 31.4419 79.5535 25.3219H87.8605C90.2577 28.8033 91.8887 32.7539 92.6456 36.9126C93.4025 41.0712 93.2681 45.3431 92.2513 49.4459C91.0816 53.8706 88.9116 58.0072 86.8094 62.0082C83.5714 68.1452 80.5368 73.9431 81.6048 79.8766C83.8427 92.1166 101.762 96.5244 117.477 95.4394C119.122 95.3207 120.8 95.1851 122.479 95.0665C137.702 93.8628 154.961 92.5236 166.489 102.78C177.084 112.189 176.881 125.717 176.677 138.788C176.542 148.435 176.389 158.386 180.627 166.371C186.713 177.78 201.157 184.866 224.773 188.003C226.773 188.274 228.808 188.528 230.842 188.783C247.863 190.902 265.443 193.089 278.514 203.684C290.771 213.619 295.603 228.181 300.248 242.269C301.044 244.677 301.841 247.05 302.655 249.407C304.811 255.768 307.755 261.833 311.42 267.461V267.461Z" fill="#E2C5C5"/>
<path d="M30 138.958C37.7306 148.316 54.1241 151.774 68.8224 150.757C70.4838 150.638 72.1791 150.503 73.8913 150.367C88.3522 149.231 103.322 148.062 112.663 156.369C121.173 163.93 120.987 175.559 120.8 187.867C120.648 198.226 120.495 208.94 125.445 218.247C132.583 231.64 148.671 239.828 174.643 243.27C176.677 243.541 178.729 243.795 180.78 244.049C196.801 246.05 213.364 248.118 224.926 257.476C235.742 266.241 240.285 279.956 244.676 293.23C245.473 295.654 246.269 298.079 247.1 300.452C247.863 302.639 248.677 304.724 249.524 306.742H256.78C255.509 303.978 254.424 301.215 253.491 298.57C252.678 296.214 251.881 293.84 251.084 291.433C246.439 277.345 241.607 262.783 229.35 252.848C216.28 242.253 198.699 240.066 181.678 237.946C179.644 237.692 177.61 237.438 175.609 237.167C151.994 234.03 137.55 226.944 131.464 215.535C127.225 207.55 127.378 197.598 127.514 187.952C127.717 174.881 127.921 161.353 117.325 151.944C105.797 141.687 88.5388 143.027 73.3149 144.23C71.6366 144.349 69.9583 144.485 68.3138 144.603C52.5984 145.688 34.6791 141.28 32.4413 129.04C31.3733 123.107 34.4078 117.309 37.6458 111.172C39.748 107.171 41.918 103.035 43.0878 98.6098C46.2749 86.5053 40.9008 73.0955 30 65.7718V74.0788C35.9505 80.2158 38.663 89.1839 36.5609 97.1518C35.5776 100.932 33.6449 104.611 31.6106 108.476C31.0681 109.511 30.5256 110.528 30 111.579L30 138.958Z" fill="#E2C5C5"/>
<path d="M154.486 306.742H147.45C147.077 305.64 146.721 304.521 146.348 303.402C141.958 290.128 137.414 276.413 126.598 267.648C115.036 258.29 98.4731 256.222 82.4526 254.221C80.4012 253.967 78.35 253.713 76.3156 253.441C53.3951 250.407 38.1544 243.659 30 232.911V216.043C30.5241 219.411 31.5828 222.673 33.1363 225.706C39.2224 237.116 53.6664 244.202 77.2819 247.338C79.2824 247.61 81.3168 247.864 83.351 248.118C100.372 250.237 117.952 252.424 131.023 263.02C143.28 272.954 148.112 287.517 152.757 301.605C153.333 303.334 153.893 305.046 154.486 306.742Z" fill="#E2C5C5"/>
<path d="M692.862 25.3219H411.442V306.742H692.862V25.3219Z" fill="#7E3F3F"/>
<path d="M547.066 45.6655C547.065 61.5204 542.869 77.0929 534.904 90.8018C526.938 104.511 515.488 115.868 501.714 123.721C487.94 131.574 472.334 135.642 456.48 135.513C440.625 135.385 425.087 131.063 411.442 122.988V25.3218H544.744C546.295 31.9916 547.075 38.8176 547.066 45.6655V45.6655Z" fill="#E2C5C5"/>
<path d="M619.964 155.86C649.926 155.86 674.214 131.572 674.214 101.61C674.214 71.6491 649.926 47.3607 619.964 47.3607C590.003 47.3607 565.715 71.6491 565.715 101.61C565.715 131.572 590.003 155.86 619.964 155.86Z" fill="#E2C5C5"/>
<path d="M497.903 255.883C519.437 255.883 536.895 238.425 536.895 216.891C536.895 195.356 519.437 177.899 497.903 177.899C476.368 177.899 458.911 195.356 458.911 216.891C458.911 238.425 476.368 255.883 497.903 255.883Z" fill="#E2C5C5"/>
<path d="M692.862 260.629V306.742H637.07C634.701 299.324 634.607 291.367 636.8 283.896C638.992 276.424 643.372 269.781 649.374 264.82C655.376 259.859 662.725 256.809 670.476 256.062C678.227 255.316 686.024 256.906 692.862 260.629H692.862Z" fill="#E2C5C5"/>
<path d="M596.23 225.367C601.848 225.367 606.402 220.813 606.402 215.195C606.402 209.578 601.848 205.024 596.23 205.024C590.612 205.024 586.058 209.578 586.058 215.195C586.058 220.813 590.612 225.367 596.23 225.367Z" fill="#6C63FF"/>
<path d="M1076 25.3219H794.58V306.742H1076V25.3219Z" fill="#7E3F3F"/>
<path d="M931.9 25.3218V140.602H794.58V147.383H938.681V25.3218H931.9Z" fill="#E2C5C5"/>
<path d="M1064.35 306.742L1076 290.178V278.396L1056.06 306.742H1064.35ZM1017.05 185.392L954.65 274.141L1001.02 306.742H1012.8L964.093 272.497L1018.7 194.835L1076 235.132V226.842L1017.05 185.392Z" fill="#E2C5C5"/>
<path d="M913.251 174.152L877.294 210.11L913.251 246.067L949.209 210.11L913.251 174.152ZM886.872 210.11L913.251 183.731L939.63 210.11L913.251 236.488L886.872 210.11Z" fill="#E2C5C5"/>
<path d="M167.934 51.0867C182.041 51.0867 193.477 39.6506 193.477 25.5434C193.477 11.4361 182.041 0 167.934 0C153.827 0 142.391 11.4361 142.391 25.5434C142.391 39.6506 153.827 51.0867 167.934 51.0867Z" fill="#F2F2F2"/>
<path d="M562.579 51.0867C576.686 51.0867 588.122 39.6506 588.122 25.5434C588.122 11.4361 576.686 0 562.579 0C548.472 0 537.035 11.4361 537.035 25.5434C537.035 39.6506 548.472 51.0867 562.579 51.0867Z" fill="#F2F2F2"/>
<path d="M939.343 51.0867C953.45 51.0867 964.886 39.6506 964.886 25.5434C964.886 11.4361 953.45 0 939.343 0C925.236 0 913.8 11.4361 913.8 25.5434C913.8 39.6506 925.236 51.0867 939.343 51.0867Z" fill="#F2F2F2"/>
<path d="M536.397 174.333C549.799 174.333 560.663 163.469 560.663 150.067C560.663 136.665 549.799 125.801 536.397 125.801C522.995 125.801 512.131 136.665 512.131 150.067C512.131 163.469 522.995 174.333 536.397 174.333Z" fill="#FFB8B8"/>
<path d="M523.625 161.562C523.625 161.562 530.011 194.768 527.457 201.154C524.902 207.54 563.217 198.599 563.217 198.599C563.217 198.599 555.554 165.393 556.831 157.73C558.109 150.067 523.625 161.562 523.625 161.562Z" fill="#FFB8B8"/>
<path d="M481.479 276.507L484.033 310.99L496.71 365.146L500.636 379.957L507.022 356.968L500.636 304.604L498.467 281.029L481.479 276.507Z" fill="#FFB8B8"/>
<path d="M615.581 271.398V307.159C615.581 307.159 611.75 353.137 604.087 364.631C596.424 376.126 593.869 318.653 593.869 318.653L599.874 276.507L615.581 271.398Z" fill="#FFB8B8"/>
<path d="M501.913 382.512C501.913 382.512 495.528 390.175 500.636 468.082C505.745 545.989 498.082 602.184 514.685 602.184C514.685 602.184 509.576 618.788 523.625 620.065C537.674 621.342 544.06 622.619 545.337 618.788C546.614 614.956 549.169 597.076 545.337 597.076C545.337 597.076 545.337 602.184 547.891 581.75C550.446 561.315 550.446 464.25 556.832 451.479L577.266 498.734C577.266 498.734 577.266 520.446 581.098 530.663C584.929 540.88 591.315 599.63 591.315 599.63L590.038 608.57C590.038 608.57 620.69 613.679 621.967 608.57C623.244 603.461 623.244 595.798 621.967 593.244C620.69 590.69 620.69 590.69 623.244 585.581C625.799 580.472 625.799 576.641 624.521 572.809C623.244 568.978 623.244 485.962 623.244 485.962C623.244 485.962 620.69 385.066 605.364 379.957C590.038 374.849 501.913 382.512 501.913 382.512Z" fill="#2F2E41"/>
<path d="M518.517 609.847L508.299 627.728C508.299 627.728 492.335 621.98 495.527 636.668C522.987 638.584 542.144 636.029 542.144 636.029C542.144 636.029 548.53 638.584 549.807 634.752C551.084 630.921 546.614 617.51 542.783 617.51C538.951 617.51 518.517 609.847 518.517 609.847Z" fill="#2F2E41"/>
<path d="M592.592 604.739C592.592 604.739 582.375 627.728 586.206 629.005C590.038 630.282 624.521 635.391 627.076 636.668C629.63 637.945 642.402 639.222 643.679 631.559C644.956 623.896 637.293 621.342 637.293 621.342C637.293 621.342 623.244 618.788 619.413 606.016C615.581 593.244 592.592 604.739 592.592 604.739Z" fill="#2F2E41"/>
<path d="M565.772 194.768C565.772 194.768 531.288 188.382 523.625 194.768C515.962 201.154 484.033 213.926 484.033 220.311C484.033 226.697 500.636 289.278 500.636 289.278C500.636 289.278 491.696 383.789 500.636 386.343C509.576 388.897 524.902 381.234 542.783 390.175C560.663 399.115 611.75 382.512 611.75 382.512C611.75 382.512 592.592 300.773 597.701 285.447C602.81 270.121 606.641 217.757 606.641 217.757C606.641 217.757 584.929 194.768 565.772 194.768Z" fill="#8985A8"/>
<path d="M492.973 216.48L484.033 219.034C484.033 219.034 464.875 279.061 472.538 281.615C480.201 284.17 501.913 289.278 504.468 289.278C507.022 289.278 492.973 216.48 492.973 216.48Z" fill="#8985A8"/>
<path d="M586.206 210.094L606.641 217.757C606.641 217.757 633.462 267.567 627.076 273.952C620.69 280.338 592.592 286.724 592.592 286.724L586.206 210.094Z" fill="#8985A8"/>
<path d="M535.66 120.095C533.642 119.729 531.567 119.821 529.59 120.363C528.007 121.064 526.549 122.02 525.276 123.193C522.965 125.034 520.497 126.67 517.9 128.08C515.83 129.203 513.606 130.243 512.161 132.102C511.478 133.042 510.932 134.075 510.541 135.168C508.052 141.525 507.383 148.449 508.609 155.164C508.747 156.119 509.034 157.045 509.46 157.91C510.787 160.356 513.719 161.32 516.189 162.602C520.878 165.036 524.432 169.134 528.278 172.757C529.707 174.182 531.312 175.42 533.055 176.438C538.541 179.429 545.248 178.453 551.407 177.395C551.843 177.395 552.275 177.307 552.678 177.139C553.08 176.97 553.446 176.724 553.753 176.413C554.059 176.103 554.302 175.735 554.466 175.33C554.63 174.926 554.712 174.493 554.708 174.056L559.569 152.191C560.45 148.951 560.87 145.603 560.815 142.246C560.476 136.938 557.602 129.586 553.707 125.815C549.168 121.422 541.593 120.723 535.66 120.095Z" fill="#2F2E41"/>
<path d="M371.079 620.157C376.645 620.157 381.157 615.645 381.157 610.079C381.157 604.512 376.645 600 371.079 600C365.512 600 361 604.512 361 610.079C361 615.645 365.512 620.157 371.079 620.157Z" fill="#E2C5C5"/>
<path d="M398.686 607.969V607.968C398.678 600.71 395.791 593.752 390.659 588.62C385.527 583.488 378.569 580.601 371.311 580.593L371.31 581.093V580.593C365.896 580.593 360.603 582.198 356.101 585.206C351.599 588.215 348.09 592.49 346.018 597.492C343.946 602.495 343.404 607.999 344.46 613.31C345.516 618.62 348.123 623.498 351.952 627.327C355.781 631.156 360.659 633.763 365.969 634.819C371.28 635.876 376.784 635.333 381.787 633.261C386.789 631.189 391.065 627.68 394.073 623.178C397.081 618.676 398.686 613.383 398.686 607.969ZM371.31 636.585C365.65 636.585 360.118 634.907 355.412 631.762C350.706 628.618 347.038 624.149 344.872 618.92C342.706 613.691 342.14 607.937 343.244 602.386C344.348 596.835 347.074 591.736 351.076 587.734C355.078 583.732 360.176 581.007 365.727 579.903C371.278 578.799 377.032 579.365 382.261 581.531C387.49 583.697 391.959 587.365 395.103 592.071C398.248 596.776 399.926 602.309 399.926 607.968C399.918 615.555 396.9 622.829 391.535 628.194C386.17 633.559 378.896 636.576 371.31 636.585Z" fill="#2F2E41" stroke="#EAE1E1"/>
<path d="M861.742 619.325C867.309 619.325 871.821 614.812 871.821 609.246C871.821 603.68 867.309 599.167 861.742 599.167C856.176 599.167 851.664 603.68 851.664 609.246C851.664 614.812 856.176 619.325 861.742 619.325Z" fill="#E2C5C5"/>
<path d="M885.536 593.348C888.68 598.054 890.358 603.586 890.358 609.245C890.35 616.832 887.332 624.106 881.967 629.471C876.603 634.836 869.329 637.854 861.742 637.862C856.082 637.862 850.55 636.184 845.844 633.039C841.138 629.895 837.47 625.426 835.305 620.197C833.139 614.968 832.572 609.214 833.676 603.663C834.78 598.112 837.506 593.013 841.508 589.011C845.51 585.009 850.609 582.284 856.16 581.18C861.711 580.076 867.464 580.642 872.693 582.808C877.922 584.974 882.391 588.642 885.536 593.348ZM862.242 581.875V581.87H861.742C856.328 581.87 851.035 583.475 846.533 586.484C842.031 589.492 838.522 593.767 836.45 598.77C834.378 603.772 833.836 609.276 834.892 614.587C835.948 619.897 838.556 624.775 842.384 628.604C846.213 632.433 851.091 635.04 856.402 636.096C861.712 637.153 867.216 636.611 872.219 634.539C877.221 632.466 881.497 628.958 884.505 624.456C887.513 619.954 889.119 614.661 889.119 609.246V609.246C889.11 601.988 886.223 595.029 881.091 589.897C876.077 584.883 869.319 582.012 862.242 581.875Z" fill="#2F2E41" stroke="#EAE1E1"/>
<path d="M862.079 563.157C867.645 563.157 872.157 558.645 872.157 553.079C872.157 547.512 867.645 543 862.079 543C856.512 543 852 547.512 852 553.079C852 558.645 856.512 563.157 862.079 563.157Z" fill="#E2C5C5"/>
<path d="M861.743 525.674H861.742C856.328 525.674 851.035 527.28 846.533 530.288C842.031 533.296 838.522 537.572 836.45 542.574C834.378 547.577 833.836 553.081 834.892 558.392C835.948 563.702 838.556 568.58 842.384 572.409C846.213 576.237 851.091 578.845 856.402 579.901C861.712 580.957 867.216 580.415 872.219 578.343C877.221 576.271 881.497 572.762 884.505 568.26C887.513 563.758 889.119 558.465 889.119 553.051V553.05C889.11 545.792 886.223 538.834 881.091 533.702C875.959 528.57 869.001 525.683 861.743 525.674ZM885.536 537.153C888.68 541.858 890.358 547.391 890.358 553.05C890.35 560.637 887.332 567.911 881.967 573.276C876.603 578.641 869.329 581.658 861.742 581.667C856.082 581.667 850.55 579.988 845.844 576.844C841.138 573.7 837.47 569.23 835.305 564.002C833.139 558.773 832.572 553.019 833.676 547.468C834.78 541.917 837.506 536.818 841.508 532.816C845.51 528.814 850.609 526.089 856.16 524.985C861.711 523.88 867.464 524.447 872.693 526.613C877.922 528.779 882.391 532.447 885.536 537.153Z" fill="#2F2E41" stroke="#EAE1E1"/>
</svg>
